<mxfile host="app.diagrams.net" modified="2023-07-06T00:44:36.483Z" agent="Mozilla/5.0 (Windows NT 10.0; Win64; x64) AppleWebKit/537.36 (KHTML, like Gecko) Chrome/114.0.0.0 Safari/537.36 Edg/114.0.1823.67" version="21.6.1" etag="OXmP1s_i3er1_wAVuUp8" type="github">
  <diagram name="PÃ¡gina-1" id="MsEy-FufOKxTL2JG90F4">
    <mxGraphModel>
      <root>
        <mxCell id="0" />
        <mxCell id="1" parent="0" />
      </root>
    </mxGraphModel>
  </diagram>
</mxfile>
